# This file uses centimeters as units for non-parametric coordinates.

mtllib vespa_license_plate.mtl
v -410.539215 54.744072 100.247925
v -401.254211 54.756657 92.874939
v -401.133453 54.841770 92.725685
v -410.773346 54.832737 100.377991
v -401.152588 55.057262 92.605568
v -410.878265 55.043098 100.329140
v -405.738159 69.989319 86.866859
v -415.466919 70.000618 94.576920
v -405.847015 70.196297 86.823265
v -415.456635 70.199402 94.443932
v -415.301788 70.269516 94.277077
v -406.048309 70.272491 86.935104
v -401.639648 54.445660 92.387222
v -410.914398 54.435505 99.782661
v -411.148346 54.527508 99.902092
v -411.284119 54.722420 99.818130
v -415.874207 69.663124 94.041153
v -415.859619 69.883705 93.933372
v -415.557037 69.943855 93.624657
v -406.457336 69.944664 86.403664
v -406.255829 69.880402 86.309372
v -406.146820 69.657158 86.330391
v -401.558624 54.738026 92.096741
v -401.520538 54.532410 92.237831
v -408.772003 62.143623 93.008018
vt 0.505859 0.204590
vt 0.541016 0.205078
vt 0.541504 0.205078
vt 0.505371 0.205078
vt 0.541504 0.206055
vt 0.504883 0.205566
vt 0.541504 0.254883
vt 0.504883 0.254883
vt 0.541504 0.255371
vt 0.505371 0.255371
vt 0.505859 0.255859
vt 0.541016 0.255859
vt 0.057861 0.817505
vt 0.059998 0.817505
vt 0.059998 0.852661
vt 0.057861 0.852661
vt 0.057861 0.853516
vt 0.059998 0.853516
vt 0.059998 0.854248
vt 0.057861 0.854248
vt 0.057861 0.903564
vt 0.059998 0.903564
vt 0.057861 0.904297
vt 0.059998 0.904297
vt 0.059998 0.905334
vt 0.057861 0.905334
vt 0.059998 0.940033
vt 0.057861 0.940033
vt 0.057861 0.940735
vt 0.059998 0.940735
vt 0.059998 0.941437
vt 0.057861 0.941437
vt 0.059998 0.990768
vt 0.057861 0.990768
vt 0.057861 0.991508
vt 0.059998 0.991508
vt 0.059998 0.992126
vt 0.057861 0.992126
vt 0.535156 0.733154
vt 0.535156 0.733887
vt 0.533691 0.734131
vt 0.517090 0.708740
vt 0.535156 0.684082
vt 0.499512 0.734131
vt 0.535156 0.683350
vt 0.499023 0.733887
vt 0.534180 0.683105
vt 0.498779 0.733154
vt 0.499268 0.683105
vt 0.498535 0.684082
vt 0.498779 0.683350
vn 0.556296 0.437935 0.706220
vn 0.556296 0.437935 0.706220
vn 0.556296 0.437935 0.706220
vn 0.556296 0.437935 0.706220
vn 0.556296 0.437935 0.706220
vn 0.556296 0.437935 0.706220
vn 0.556296 0.437935 0.706220
vn 0.556296 0.437935 0.706220
vn 0.556296 0.437935 0.706220
vn 0.556296 0.437935 0.706220
vn 0.556296 0.437935 0.706220
vn 0.556296 0.437935 0.706220
vn 0.556296 0.437935 0.706220
vn 0.556296 0.437935 0.706220
vn 0.556296 0.437935 0.706220
vn 0.556296 0.437935 0.706220
vn 0.556296 0.437935 0.706220
vn 0.556296 0.437935 0.706220
vn 0.556296 0.437935 0.706220
vn 0.556296 0.437935 0.706220
vn 0.556296 0.437935 0.706220
vn 0.556296 0.437935 0.706220
vn 0.556296 0.437935 0.706220
vn 0.556296 0.437935 0.706220
vn 0.556296 0.437935 0.706220
vn 0.556296 0.437935 0.706220
vn 0.556296 0.437935 0.706220
vn 0.556296 0.437935 0.706220
vn 0.556296 0.437935 0.706220
vn 0.556296 0.437935 0.706220
vn 0.449840 -0.872299 0.191671
vn 0.449840 -0.872299 0.191671
vn 0.129037 -0.879799 0.457496
vn 0.129037 -0.879799 0.457496
vn 0.121732 -0.875682 0.467292
vn 0.449840 -0.872299 0.191671
vn -0.442342 -0.559778 0.700701
vn 0.121732 -0.875682 0.467292
vn 0.129037 -0.879799 0.457496
vn 0.129037 -0.879799 0.457496
vn -0.411354 -0.591566 0.693425
vn -0.442342 -0.559778 0.700701
vn -0.442342 -0.559778 0.700701
vn -0.411354 -0.591566 0.693425
vn -0.748594 -0.105822 0.654530
vn -0.748594 -0.105822 0.654530
vn -0.756432 -0.097983 0.646691
vn -0.442342 -0.559778 0.700701
vn -0.828050 0.129505 0.545493
vn -0.756432 -0.097983 0.646691
vn -0.748594 -0.105822 0.654530
vn -0.748594 -0.105822 0.654530
vn -0.827795 0.160851 0.537478
vn -0.828050 0.129505 0.545493
vn -0.750348 0.648206 0.129641
vn -0.828050 0.129505 0.545493
vn -0.827795 0.160851 0.537478
vn -0.827795 0.160851 0.537478
vn -0.741484 0.647328 0.176544
vn -0.750348 0.648206 0.129641
vn -0.750348 0.648206 0.129641
vn -0.741484 0.647328 0.176544
vn -0.403370 0.881148 -0.246721
vn -0.403370 0.881148 -0.246721
vn -0.341887 0.884191 -0.318309
vn -0.750348 0.648206 0.129641
vn -0.341887 0.884191 -0.318309
vn -0.403370 0.881148 -0.246721
vn -0.129497 0.882937 -0.451279
vn -0.129497 0.882937 -0.451279
vn -0.137202 0.882014 -0.450807
vn -0.341887 0.884191 -0.318309
vn 0.388086 0.615450 -0.686011
vn -0.137202 0.882014 -0.450807
vn -0.129497 0.882937 -0.451279
vn -0.129497 0.882937 -0.451279
vn 0.404813 0.593464 -0.695649
vn 0.388086 0.615450 -0.686011
vn 0.388086 0.615450 -0.686011
vn 0.404813 0.593464 -0.695649
vn 0.744470 0.114231 -0.657812
vn 0.744470 0.114231 -0.657812
vn 0.743041 0.129737 -0.656550
vn 0.388086 0.615450 -0.686011
vn 0.743041 0.129737 -0.656550
vn 0.744470 0.114231 -0.657812
vn 0.807343 -0.114209 -0.578924
vn 0.807343 -0.114209 -0.578924
vn 0.804355 -0.105939 -0.584628
vn 0.743041 0.129737 -0.656550
vn 0.788078 -0.544989 -0.286217
vn 0.804355 -0.105939 -0.584628
vn 0.807343 -0.114209 -0.578924
vn 0.807343 -0.114209 -0.578924
vn 0.781680 -0.561709 -0.271035
vn 0.788078 -0.544989 -0.286217
vn 0.788078 -0.544989 -0.286217
vn 0.781680 -0.561709 -0.271035
vn 0.449840 -0.872299 0.191671
vn 0.449840 -0.872299 0.191671
vn 0.449840 -0.872299 0.191671
vn 0.788078 -0.544989 -0.286217
vn -0.587007 -0.400409 -0.703631
vn -0.650742 -0.300043 -0.697502
vn -0.572983 -0.417069 -0.705510
vn -0.572983 -0.417069 -0.705510
vn -0.554801 -0.446169 -0.702231
vn -0.587007 -0.400409 -0.703631
vn -0.587007 -0.400409 -0.703631
vn -0.554801 -0.446169 -0.702231
vn -0.401991 -0.542493 -0.737634
vn -0.519266 -0.456798 -0.722287
vn -0.554801 -0.446169 -0.702231
vn -0.572983 -0.417069 -0.705510
vn -0.470896 -0.509813 -0.719964
vn -0.401991 -0.542493 -0.737634
vn -0.554801 -0.446169 -0.702231
vn -0.554801 -0.446169 -0.702231
vn -0.519266 -0.456798 -0.722287
vn -0.558615 -0.433610 -0.707058
vn -0.554801 -0.446169 -0.702231
vn -0.548497 -0.462916 -0.696319
vn -0.470896 -0.509813 -0.719964
vn -0.558615 -0.433610 -0.707058
vn -0.618406 -0.392824 -0.680635
vn -0.554801 -0.446169 -0.702231
vn -0.548497 -0.462916 -0.696319
vn -0.554801 -0.446169 -0.702231
vn -0.551206 -0.488658 -0.676303
vn -0.556614 -0.486551 -0.673386
vn -0.554801 -0.446169 -0.702231
vn -0.618406 -0.392824 -0.680635
vn -0.551206 -0.488658 -0.676303
vn -0.554801 -0.446169 -0.702231
vn -0.556614 -0.486551 -0.673386
vn -0.556614 -0.486551 -0.673386
vn -0.463421 -0.556884 -0.689290
vn -0.551206 -0.488658 -0.676303
usemtl Bistro_Research_Exterior__lod0_Vespa_3937SG
f 1/1/1 2/2/2 3/3/3
f 3/3/4 4/4/5 1/1/6
f 4/4/7 3/3/8 5/5/9
f 5/5/10 6/6/11 4/4/12
f 6/6/13 5/5/14 7/7/15
f 7/7/16 8/8/17 6/6/18
f 8/8/19 7/7/20 9/9/21
f 9/9/22 10/10/23 8/8/24
f 11/11/25 10/10/26 9/9/27
f 9/9/28 12/12/29 11/11/30
f 13/13/31 2/14/32 1/15/33
f 1/15/34 14/16/35 13/13/36
f 15/17/37 14/16/38 1/15/39
f 1/15/40 4/18/41 15/17/42
f 15/17/43 4/18/44 6/19/45
f 6/19/46 16/20/47 15/17/48
f 17/21/49 16/20/50 6/19/51
f 6/19/52 8/22/53 17/21/54
f 18/23/55 17/21/56 8/22/57
f 8/22/58 10/24/59 18/23/60
f 18/23/61 10/24/62 11/25/63
f 11/25/64 19/26/65 18/23/66
f 19/26/67 11/25/68 12/27/69
f 12/27/70 20/28/71 19/26/72
f 21/29/73 20/28/74 12/27/75
f 12/27/76 9/30/77 21/29/78
f 21/29/79 9/30/80 7/31/81
f 7/31/82 22/32/83 21/29/84
f 22/32/85 7/31/86 5/33/87
f 5/33/88 23/34/89 22/32/90
f 24/35/91 23/34/92 5/33/93
f 5/33/94 3/36/95 24/35/96
f 24/35/97 3/36/98 2/37/99
f 2/37/100 13/38/101 24/35/102
f 17/39/103 18/40/104 19/41/105
f 19/41/106 25/42/107 17/39/108
f 17/39/109 25/42/110 16/43/111
f 20/44/112 25/42/113 19/41/114
f 15/45/115 16/43/116 25/42/117
f 25/42/118 20/44/119 21/46/120
f 25/42/121 14/47/122 15/45/123
f 21/46/124 22/48/125 25/42/126
f 14/47/127 25/42/128 13/49/129
f 23/50/130 25/42/131 22/48/132
f 13/49/133 25/42/134 23/50/135
f 23/50/136 24/51/137 13/49/138
